<svg width="31" height="40" viewBox="0 0 31 40" version="1.1" xmlns="http://www.w3.org/2000/svg"><title>Layer_13</title><defs><linearGradient x1="0%" y1="50%" x2="100%" y2="50%" id="linearGradient-1"><stop stop-color="#FFF" stop-opacity="0" offset="0%"/><stop stop-color="#FFF" offset="100%"/></linearGradient></defs><g id="Page-1" stroke="none" stroke-width="1" fill="none" fill-rule="evenodd"><g id="Sign_50x65"><g id="Layer_2"><g id="Layer_13"><g id="Shape-+-text"><g id="Sign_200x260"><g id="Layer_2"><g id="Layer_13"><path id="Rectangle-path" fill="url(#linearGradient-1)" d="M7.75 23.077h7.982V31H7.75z"/><path d="M7.75 23.077v-7.692c0-4.249 3.47-7.693 7.75-7.693 4.28 0 7.75 3.444 7.75 7.693 0 4.248-3.47 7.692-7.75 7.692v7.692c8.56 0 15.5-6.888 15.5-15.384C31 6.888 24.06 0 15.5 0 6.94 0 0 6.888 0 15.385V40h3.875c2.14 0 3.875-1.722 3.875-3.846V23.077z" id="Shape" fill="#FFF"/></g></g></g></g></g></g></g></g></svg>